# 3ds Max Wavefront OBJ Exporter v0.97b - (c)2007 guruware
# File Created: 07.04.2019 19:20:09

#
# object LODC
#

v  38.1910 -579.4631 81.9736
v  0.8180 -579.4631 21.7149
v  0.8182 425.2647 35.5093
v  40.3721 425.2647 95.2467
v  0.8181 691.8416 146.0617
v  0.8182 425.2647 153.8069
v  45.6460 691.8416 83.2019
v  0.8181 988.0136 128.0447
v  49.0371 987.9875 41.1099
v  0.8180 -579.4631 138.8271
v  -38.7358 425.2647 95.2467
v  -36.5550 -579.4631 81.9735
v  0.8179 -946.6650 38.1626
v  38.1792 -946.6650 98.2358
v  -47.4008 987.9875 41.1099
v  0.8181 988.2404 -39.3481
v  0.8181 691.8416 14.8453
v  -44.0095 691.8416 83.2018
v  -36.5433 -946.6650 98.2357
v  0.8179 -946.6650 154.5751
v  0.8179 -1185.2986 58.7144
v  40.6743 -1216.4547 127.5134
v  0.8179 -1179.7537 223.7837
v  -39.0381 -1216.4547 127.5134
v  18.5706 1178.6918 -295.8350
v  6.4958 1111.0660 -341.7532
v  -6.4960 1111.0660 -341.7532
v  -18.5706 1178.6918 -295.8350
v  -53.9009 1095.7970 -53.5737
v  53.9009 1095.7970 -53.5737
v  54.9317 988.5870 -52.2502
v  -54.9317 988.5870 -52.2502
v  37.1764 1109.1300 -208.7292
v  -37.1764 1109.1300 -208.7292
v  -52.8362 1109.1073 -66.9049
v  52.8362 1109.1073 -66.9049
v  52.6226 987.4642 96.5784
v  -52.6226 987.4642 96.5784
v  52.5845 1259.8831 97.2668
v  24.5113 1260.2456 223.5399
v  24.3774 977.6377 223.1500
v  -5.8571 937.2543 383.9495
v  -24.3774 977.6377 223.1500
v  5.8573 937.2543 383.9495
v  -52.5845 1259.8831 97.2668
v  -24.5114 1260.2456 223.5399
v  -42.2716 1250.4232 -174.6960
v  42.2716 1250.4232 -174.6960
v  55.1646 1269.1506 -34.0650
v  -55.1646 1269.1506 -34.0650
v  0.0001 934.4042 394.6923
v  2.9737 1026.7952 418.0923
v  0.0001 1026.7950 428.8795
v  1.5710 1119.5878 429.3217
v  2.9732 1215.3783 418.5660
v  0.0001 1215.3783 429.3535
v  0.0001 1119.5878 439.6647
v  0.0001 1301.0992 394.0182
v  5.8707 1298.1401 383.2569
v  -1.5708 1119.5878 429.3217
v  -2.9735 1026.7952 418.0923
v  -2.9730 1215.3783 418.5660
v  -5.8705 1298.1401 383.2569
# 63 vertices

vn 1.0000 0.0000 0.0031
vn 0.0003 -0.0183 -0.9998
vn 0.0003 -0.0336 -0.9994
vn 0.9998 -0.0092 0.0160
vn 0.0000 0.0366 0.9993
vn 0.0001 0.0061 1.0000
vn 0.9992 -0.0244 0.0313
vn 0.0000 0.1099 0.9939
vn 0.9976 -0.0244 -0.0652
vn 0.0001 0.0122 0.9999
vn -0.9998 -0.0092 0.0160
vn -1.0000 0.0000 0.0031
vn 0.0000 -0.0671 -0.9977
vn 0.9996 0.0244 -0.0107
vn -0.9976 -0.0244 -0.0652
vn 0.0000 -0.1771 -0.9842
vn 0.0000 -0.1221 -0.9925
vn -0.9992 -0.0244 0.0313
vn -0.9996 0.0244 -0.0107
vn 0.0000 0.1770 0.9842
vn 0.0000 -0.0976 -0.9952
vn 0.9993 0.0000 -0.0374
vn 0.0000 -0.9353 0.3538
vn 0.0000 -1.0000 -0.0091
vn 0.0000 -0.9118 -0.4107
vn 0.0000 0.7442 -0.6680
vn 0.0000 0.5617 -0.8273
vn 0.0000 -0.3788 -0.9255
vn 0.0000 -0.0122 -0.9999
vn 0.0000 -0.9999 -0.0152
vn 0.0000 -1.0000 -0.0061
vn 0.0000 -0.9153 -0.4027
vn 0.0000 -0.9992 -0.0396
vn 0.0000 -1.0000 -0.0076
vn 0.9931 0.0000 0.1175
vn 0.9934 0.0000 0.1145
vn 0.9871 0.0000 0.1602
vn 0.9873 0.0000 0.1587
vn 0.0000 -0.9691 -0.2468
vn 0.0000 -0.9883 -0.1525
vn 0.0000 0.9993 0.0366
vn 0.0000 0.9944 -0.1059
vn 0.0000 0.9505 -0.3107
vn 0.0000 0.9996 -0.0286
vn 0.9768 -0.0122 -0.2136
vn 0.9861 0.0000 -0.1663
vn 0.9739 -0.0244 -0.2258
vn 0.9916 0.0000 -0.1297
vn 0.9961 0.0000 -0.0885
vn 0.9998 0.0122 0.0156
vn 1.0000 0.0000 -0.0080
vn 0.0000 -0.3052 0.9523
vn 0.8842 -0.1403 0.4454
vn 0.9604 -0.0611 0.2717
vn 0.0000 -0.1955 0.9807
vn 0.9596 0.0733 0.2716
vn 0.0000 0.2072 0.9783
vn 0.0000 0.0000 1.0000
vn 0.9939 0.0000 0.1099
vn 0.9935 -0.0122 0.1129
vn 0.0000 0.3417 0.9398
vn 0.8842 0.1586 0.4393
vn -0.0000 -0.9664 -0.2569
vn -0.9939 0.0000 0.1099
vn -0.9873 0.0000 0.1587
vn -0.9931 0.0000 0.1175
vn -0.9871 0.0000 0.1602
vn -0.9934 0.0000 0.1145
vn -0.9861 0.0000 -0.1663
vn -0.9768 -0.0122 -0.2136
vn -0.9739 -0.0244 -0.2258
vn -0.9961 0.0000 -0.0885
vn -0.9916 0.0000 -0.1297
vn -1.0000 0.0000 -0.0080
vn -0.9995 0.0000 -0.0305
vn -0.9604 -0.0611 0.2717
vn -0.8842 -0.1403 0.4454
vn -0.9596 0.0733 0.2716
vn -0.8842 0.1586 0.4393
vn -0.0000 0.9641 -0.2654
vn 0.0000 0.9694 -0.2454
vn 0.9995 0.0000 -0.0305
vn -0.9998 0.0122 0.0156
vn -0.9993 0.0000 -0.0374
vn 0.0000 0.1589 0.9873
vn 0.9935 0.0122 0.1129
vn -0.9935 0.0122 0.1129
vn -0.9935 -0.0122 0.1129
# 88 vertex normals

vt 0.1424 0.7114 0.0000
vt 0.1079 0.7105 0.0000
vt 0.1060 0.2640 0.0000
vt 0.1416 0.2656 0.0000
vt 0.1849 0.1517 0.0000
vt 0.1770 0.2681 0.0000
vt 0.1465 0.1472 0.0000
vt 0.2031 0.0233 0.0000
vt 0.1537 0.0161 0.0000
vt 0.0400 0.7127 0.0000
vt 0.0356 0.2683 0.0000
vt 0.0705 0.2657 0.0000
vt 0.0734 0.7115 0.0000
vt 0.1759 0.7124 0.0000
vt 0.1095 0.8732 0.0000
vt 0.1443 0.8745 0.0000
vt 0.0568 0.0163 0.0000
vt 0.1052 0.0106 0.0000
vt 0.1053 0.1436 0.0000
vt 0.0636 0.1476 0.0000
vt 0.0748 0.8747 0.0000
vt 0.0414 0.8755 0.0000
vt 0.1093 0.9789 0.0000
vt 0.1481 0.9950 0.0000
vt 0.0249 0.1524 0.0000
vt 0.1778 0.8752 0.0000
vt 0.0074 0.0236 0.0000
vt 0.2040 0.4856 0.0000
vt 0.2208 0.5346 0.0000
vt 0.1833 0.5331 0.0000
vt 0.2007 0.5687 0.0000
vt 0.8920 0.0999 0.0000
vt 0.9035 0.0206 0.0000
vt 0.9160 0.0206 0.0000
vt 0.9277 0.0999 0.0000
vt 0.8385 0.5486 0.0000
vt 0.7350 0.5486 0.0000
vt 0.7340 0.4454 0.0000
vt 0.8395 0.4454 0.0000
vt 0.7930 0.8326 0.0000
vt 0.7805 0.8326 0.0000
vt 0.7510 0.7043 0.0000
vt 0.8225 0.7043 0.0000
vt 0.8375 0.5681 0.0000
vt 0.7360 0.5681 0.0000
vt 0.7362 0.3022 0.0000
vt 0.8373 0.3022 0.0000
vt 0.4451 0.3355 0.0000
vt 0.7079 0.3483 0.0000
vt 0.7146 0.2240 0.0000
vt 0.4421 0.2104 0.0000
vt 0.7923 0.0206 0.0000
vt 0.8102 0.1801 0.0000
vt 0.7632 0.1801 0.0000
vt 0.7811 0.0206 0.0000
vt 0.9604 0.4990 0.0000
vt 0.9334 0.6208 0.0000
vt 0.8863 0.6208 0.0000
vt 0.8594 0.4990 0.0000
vt 0.9505 0.2359 0.0000
vt 0.8693 0.2359 0.0000
vt 0.8569 0.3724 0.0000
vt 0.9629 0.3724 0.0000
vt 0.6104 0.7253 0.0000
vt 0.5469 0.6361 0.0000
vt 0.5429 0.7676 0.0000
vt 0.6853 0.6100 0.0000
vt 0.5538 0.4991 0.0000
vt 0.4391 0.4789 0.0000
vt 0.5420 0.4859 0.0000
vt 0.5734 0.9393 0.0000
vt 0.5799 0.9507 0.0000
vt 0.4883 0.9787 0.0000
vt 0.4839 0.9690 0.0000
vt 0.3955 0.9898 0.0000
vt 0.2993 0.9803 0.0000
vt 0.3038 0.9707 0.0000
vt 0.3953 0.9798 0.0000
vt 0.4996 0.0246 0.0000
vt 0.4114 0.0531 0.0000
vt 0.2202 0.9409 0.0000
vt 0.2130 0.9519 0.0000
vt 0.7867 0.0100 0.0000
vt 0.3953 0.9698 0.0000
vt 0.5313 0.7700 0.0000
vt 0.4839 0.9583 0.0000
vt 0.5208 0.6452 0.0000
vt 0.2581 0.7722 0.0000
vt 0.2575 0.6477 0.0000
vt 0.4014 0.3506 0.0000
vt 0.3327 0.2653 0.0000
vt 0.3976 0.2190 0.0000
vt 0.4026 0.4880 0.0000
vt 0.2646 0.3849 0.0000
vt 0.4151 0.5005 0.0000
vt 0.2478 0.5211 0.0000
vt 0.5708 0.9260 0.0000
vt 0.3037 0.9600 0.0000
vt 0.2229 0.9276 0.0000
vt 0.9099 0.7893 0.0000
vt 0.9042 0.7786 0.0000
vt 0.9155 0.7786 0.0000
vt 0.7100 0.4751 0.0000
vt 0.5184 0.5014 0.0000
vt 0.0704 0.9950 0.0000
vt 0.0190 0.9802 0.0000
vt 0.1992 0.9807 0.0000
vt 0.7587 0.0716 0.0000
vt 0.6805 0.0334 0.0000
vt 0.5891 0.0183 0.0000
# 110 texture coords

g LODC
s 1
f 1/1/1 2/2/2 3/3/3 
f 3/3/3 4/4/4 1/1/1 
f 5/5/5 6/6/6 4/4/4 
f 4/4/4 7/7/7 5/5/5 
f 8/8/8 5/5/5 7/7/7 
f 7/7/7 9/9/9 8/8/8 
f 10/10/10 6/11/6 11/12/11 
f 11/12/11 12/13/12 10/10/10 
f 1/1/1 4/4/4 6/6/6 
f 6/6/6 10/14/10 1/1/1 
f 13/15/13 2/2/2 1/1/1 
f 1/1/1 14/16/14 13/15/13 
f 15/17/15 16/18/16 17/19/17 
f 17/19/17 18/20/18 15/17/15 
f 7/7/7 4/4/4 3/3/3 
f 3/3/3 17/19/17 7/7/7 
f 17/19/17 16/18/16 9/9/9 
f 9/9/9 7/7/7 17/19/17 
f 3/3/3 11/12/11 18/20/18 
f 18/20/18 17/19/17 3/3/3 
f 2/2/2 12/13/12 11/12/11 
f 11/12/11 3/3/3 2/2/2 
f 19/21/19 20/22/20 10/10/10 
f 10/10/10 12/13/12 19/21/19 
f 21/23/21 13/15/13 14/16/14 
f 14/16/14 22/24/22 21/23/21 
f 11/12/11 6/11/6 5/25/5 
f 5/25/5 18/20/18 11/12/11 
f 10/14/10 20/26/20 14/16/14 
f 14/16/14 1/1/1 10/14/10 
f 18/20/18 5/25/5 8/27/8 
f 8/27/8 15/17/15 18/20/18 
s 2
f 23/28/23 24/29/24 22/30/24 
f 22/30/24 24/29/24 21/31/25 
s 1
f 25/32/26 26/33/27 27/34/27 
f 27/34/27 28/35/26 25/32/26 
s 2
f 29/36/28 30/37/28 31/38/29 
f 31/38/29 32/39/29 29/36/28 
f 27/40/30 26/41/30 33/42/31 
f 33/42/31 34/43/31 27/40/30 
f 30/37/28 29/36/28 35/44/32 
f 35/44/32 36/45/32 30/37/28 
s 1
f 37/46/33 38/47/33 32/39/34 
f 32/39/34 31/38/34 37/46/33 
s 4
f 37/48/35 39/49/36 40/50/37 
f 40/50/37 41/51/38 37/48/35 
s 1
f 42/52/39 43/53/40 41/54/40 
f 41/54/40 44/55/39 42/52/39 
f 45/56/41 46/57/42 40/58/42 
f 40/58/42 39/59/41 45/56/41 
f 37/46/33 41/54/40 43/53/40 
f 43/53/40 38/47/33 37/46/33 
f 25/32/26 28/35/26 47/60/43 
f 47/60/43 48/61/43 25/32/26 
s 2
f 34/43/31 33/42/31 36/45/32 
f 36/45/32 35/44/32 34/43/31 
s 1
f 45/56/41 39/59/41 49/62/44 
f 49/62/44 50/63/44 45/56/41 
f 48/61/43 47/60/43 50/63/44 
f 50/63/44 49/62/44 48/61/43 
s 4
f 25/64/45 33/65/46 26/66/47 
f 48/67/48 36/68/49 33/65/46 
f 37/48/35 31/69/50 30/70/51 
f 30/70/51 39/49/36 37/48/35 
s 2
f 51/71/52 44/72/53 52/73/54 
f 52/73/54 53/74/55 51/71/52 
f 54/75/38 55/76/56 56/77/57 
f 56/77/57 57/78/58 54/75/38 
s 4
f 41/51/38 52/79/59 44/80/60 
s 2
f 53/74/55 52/73/54 54/75/38 
f 54/75/38 57/78/58 53/74/55 
f 58/81/61 56/77/57 55/76/56 
f 55/76/56 59/82/62 58/81/61 
s 1
f 51/83/63 42/52/39 44/55/39 
s 8
f 60/84/64 43/85/65 61/86/64 
f 38/87/66 43/85/65 46/88/67 
f 46/88/67 45/89/68 38/87/66 
f 34/90/69 28/91/70 27/92/71 
f 34/90/69 35/93/72 47/94/73 
f 35/93/72 29/95/74 50/96/75 
s 2
f 61/86/76 42/97/77 51/71/52 
f 51/71/52 53/74/55 61/86/76 
f 60/84/65 57/78/58 56/77/57 
f 56/77/57 62/98/78 60/84/65 
f 53/74/55 57/78/58 60/84/65 
f 60/84/65 61/86/76 53/74/55 
f 58/81/61 63/99/79 62/98/78 
f 62/98/78 56/77/57 58/81/61 
s 1
f 58/100/80 59/101/81 63/102/81 
s 4
f 30/70/51 49/103/82 39/49/36 
s 8
f 38/87/66 45/89/68 29/95/74 
f 29/95/74 32/104/83 38/87/66 
s 4
f 25/64/45 48/67/48 33/65/46 
s 8
f 34/90/69 47/94/73 28/91/70 
s 4
f 30/70/51 36/68/49 49/103/82 
s 8
f 29/95/74 45/89/68 50/96/75 
s 4
f 48/67/48 49/103/82 36/68/49 
s 8
f 35/93/72 50/96/75 47/94/73 
s 1
f 13/15/13 19/21/19 12/13/12 
f 12/13/12 2/2/2 13/15/13 
f 19/21/19 13/15/13 21/23/21 
f 21/23/21 24/105/84 19/21/19 
f 19/21/19 24/105/84 23/106/85 
f 23/106/85 20/22/20 19/21/19 
f 14/16/14 20/26/20 23/107/85 
f 23/107/85 22/24/22 14/16/14 
f 40/58/42 46/57/42 63/102/81 
f 63/102/81 59/101/81 40/58/42 
s 4
f 40/50/37 59/108/86 55/109/59 
f 41/51/38 54/110/59 52/79/59 
f 41/51/38 40/50/37 54/110/59 
f 40/50/37 55/109/59 54/110/59 
s 8
f 62/98/64 63/99/87 46/88/67 
f 43/85/65 42/97/88 61/86/64 
f 60/84/64 62/98/64 46/88/67 
f 60/84/64 46/88/67 43/85/65 
# 0 polygons - 116 triangles

